<mxfile host="app.diagrams.net" modified="2022-07-09T09:35:57.742Z" agent="5.0 (Windows NT 10.0; Win64; x64) AppleWebKit/537.36 (KHTML, like Gecko) Chrome/103.0.0.0 Safari/537.36" etag="I99Xrailpc5IoDmyNKip" version="20.0.4" type="github">
  <diagram id="4yf2ol_EEvVLHN50Ubk_" name="Page-1">
    <mxGraphModel dx="2062" dy="804" grid="1" gridSize="10" guides="1" tooltips="1" connect="1" arrows="1" fold="1" page="1" pageScale="1" pageWidth="583" pageHeight="827" background="none" math="0" shadow="0">
      <root>
        <mxCell id="0" />
        <mxCell id="1" parent="0" />
        <mxCell id="V6ku-03CU0M4UyF2NpMm-1" style="edgeStyle=orthogonalEdgeStyle;rounded=0;orthogonalLoop=1;jettySize=auto;html=1;startArrow=none;startFill=0;" edge="1" parent="1" source="V6ku-03CU0M4UyF2NpMm-2" target="V6ku-03CU0M4UyF2NpMm-11">
          <mxGeometry relative="1" as="geometry">
            <Array as="points">
              <mxPoint x="388" y="469" />
              <mxPoint x="302" y="469" />
            </Array>
          </mxGeometry>
        </mxCell>
        <mxCell id="V6ku-03CU0M4UyF2NpMm-2" value="Home" style="shape=image;verticalLabelPosition=bottom;verticalAlign=top;imageAspect=0;aspect=fixed;image=data:image/svg+xml,PHN2ZyB4bWxucz0iaHR0cDovL3d3dy53My5vcmcvMjAwMC9zdmciIHZlcnNpb249IjEiIHZpZXdCb3g9IjAgMCA0OCA0OCIgZW5hYmxlLWJhY2tncm91bmQ9Im5ldyAwIDAgNDggNDgiPiYjeGE7ICAgIDxwb2x5Z29uIGZpbGw9IiNFOEVBRjYiIHBvaW50cz0iNDIsMzkgNiwzOSA2LDIzIDI0LDYgNDIsMjMiLz4mI3hhOyAgICA8ZyBmaWxsPSIjQzVDQUU5Ij4mI3hhOyAgICAgICAgPHBvbHlnb24gcG9pbnRzPSIzOSwyMSAzNCwxNiAzNCw5IDM5LDkiLz4mI3hhOyAgICAgICAgPHJlY3QgeD0iNiIgeT0iMzkiIHdpZHRoPSIzNiIgaGVpZ2h0PSI1Ii8+JiN4YTsgICAgPC9nPiYjeGE7ICAgIDxwb2x5Z29uIGZpbGw9IiNCNzFDMUMiIHBvaW50cz0iMjQsNC4zIDQsMjIuOSA2LDI1LjEgMjQsOC40IDQyLDI1LjEgNDQsMjIuOSIvPiYjeGE7ICAgIDxyZWN0IHg9IjE4IiB5PSIyOCIgZmlsbD0iI0Q4NDMxNSIgd2lkdGg9IjEyIiBoZWlnaHQ9IjE2Ii8+JiN4YTsgICAgPHJlY3QgeD0iMjEiIHk9IjE3IiBmaWxsPSIjMDE1NzlCIiB3aWR0aD0iNiIgaGVpZ2h0PSI2Ii8+JiN4YTsgICAgPHBhdGggZmlsbD0iI0ZGOEE2NSIgZD0iTTI3LjUsMzUuNWMtMC4zLDAtMC41LDAuMi0wLjUsMC41djJjMCwwLjMsMC4yLDAuNSwwLjUsMC41UzI4LDM4LjMsMjgsMzh2LTJDMjgsMzUuNywyNy44LDM1LjUsMjcuNSwzNS41eiIvPiYjeGE7PC9zdmc+;labelBackgroundColor=#ffffff;" vertex="1" parent="1">
          <mxGeometry x="368" y="369" width="48" height="48" as="geometry" />
        </mxCell>
        <mxCell id="V6ku-03CU0M4UyF2NpMm-3" style="edgeStyle=orthogonalEdgeStyle;rounded=0;orthogonalLoop=1;jettySize=auto;html=1;startArrow=none;startFill=0;" edge="1" parent="1" source="V6ku-03CU0M4UyF2NpMm-5" target="V6ku-03CU0M4UyF2NpMm-2">
          <mxGeometry relative="1" as="geometry" />
        </mxCell>
        <mxCell id="V6ku-03CU0M4UyF2NpMm-4" value="Keine Kommunikation nach &lt;br&gt;auÃŸerhalb des eigenen Netzwerks" style="edgeLabel;html=1;align=center;verticalAlign=middle;resizable=0;points=[];" vertex="1" connectable="0" parent="V6ku-03CU0M4UyF2NpMm-3">
          <mxGeometry x="0.3191" relative="1" as="geometry">
            <mxPoint x="-40" as="offset" />
          </mxGeometry>
        </mxCell>
        <mxCell id="V6ku-03CU0M4UyF2NpMm-5" value="Security" style="shape=image;verticalLabelPosition=bottom;verticalAlign=top;imageAspect=0;aspect=fixed;image=data:image/svg+xml,PHN2ZyB4bWxucz0iaHR0cDovL3d3dy53My5vcmcvMjAwMC9zdmciIHZlcnNpb249IjEiIHZpZXdCb3g9IjAgMCA0OCA0OCIgZW5hYmxlLWJhY2tncm91bmQ9Im5ldyAwIDAgNDggNDgiPiYjeGE7ICAgIDxwYXRoIGZpbGw9IiM0MjQyNDIiIGQ9Ik0yNCw0Yy01LjUsMC0xMCw0LjUtMTAsMTB2NGg0di00YzAtMy4zLDIuNy02LDYtNnM2LDIuNyw2LDZ2NGg0di00QzM0LDguNSwyOS41LDQsMjQsNHoiLz4mI3hhOyAgICA8cGF0aCBmaWxsPSIjRkI4QzAwIiBkPSJNMzYsNDRIMTJjLTIuMiwwLTQtMS44LTQtNFYyMmMwLTIuMiwxLjgtNCw0LTRoMjRjMi4yLDAsNCwxLjgsNCw0djE4QzQwLDQyLjIsMzguMiw0NCwzNiw0NHoiLz4mI3hhOyAgICA8Y2lyY2xlIGZpbGw9IiNDNzZFMDAiIGN4PSIyNCIgY3k9IjMxIiByPSIzIi8+JiN4YTs8L3N2Zz4=;labelBackgroundColor=#ffffff;" vertex="1" parent="1">
          <mxGeometry x="108" y="369" width="48" height="48" as="geometry" />
        </mxCell>
        <mxCell id="V6ku-03CU0M4UyF2NpMm-6" style="edgeStyle=orthogonalEdgeStyle;rounded=0;orthogonalLoop=1;jettySize=auto;html=1;startArrow=classic;startFill=1;" edge="1" parent="1" source="V6ku-03CU0M4UyF2NpMm-7" target="V6ku-03CU0M4UyF2NpMm-8">
          <mxGeometry relative="1" as="geometry" />
        </mxCell>
        <mxCell id="V6ku-03CU0M4UyF2NpMm-7" value="Eigene Datenbank" style="shape=image;verticalLabelPosition=bottom;verticalAlign=top;imageAspect=0;aspect=fixed;image=data:image/svg+xml,PHN2ZyB4bWxucz0iaHR0cDovL3d3dy53My5vcmcvMjAwMC9zdmciIHZlcnNpb249IjEiIHZpZXdCb3g9IjAgMCA0OCA0OCIgZW5hYmxlLWJhY2tncm91bmQ9Im5ldyAwIDAgNDggNDgiPiYjeGE7ICAgIDxyZWN0IHg9IjEyIiB5PSI0NCIgZmlsbD0iIzI2MzIzOCIgd2lkdGg9IjQiIGhlaWdodD0iMiIvPiYjeGE7ICAgIDxyZWN0IHg9IjMyIiB5PSI0NCIgZmlsbD0iIzI2MzIzOCIgd2lkdGg9IjQiIGhlaWdodD0iMiIvPiYjeGE7ICAgIDxwYXRoIGZpbGw9IiM2MDdEOEIiIGQ9Ik04LDQxVjdjMC0yLjIsMS44LTQsNC00aDI0YzIuMiwwLDQsMS44LDQsNHYzNGMwLDIuMi0xLjgsNC00LDRIMTJDOS44LDQ1LDgsNDMuMiw4LDQxeiIvPiYjeGE7ICAgIDxwYXRoIGZpbGw9IiNCMEJFQzUiIGQ9Ik0xMiwxN1Y4YzAtMC42LDAuNC0xLDEtMWgyMmMwLjYsMCwxLDAuNCwxLDF2OUgxMnoiLz4mI3hhOyAgICA8cmVjdCB4PSIxMiIgeT0iMTkiIGZpbGw9IiNCMEJFQzUiIHdpZHRoPSIyNCIgaGVpZ2h0PSIxMCIvPiYjeGE7ICAgIDxwYXRoIGZpbGw9IiNCMEJFQzUiIGQ9Ik0xMiw0MHYtOWgyNHY5YzAsMC42LTAuNCwxLTEsMUgxM0MxMi40LDQxLDEyLDQwLjYsMTIsNDB6Ii8+JiN4YTsgICAgPHJlY3QgeD0iMjAiIHk9IjExIiBmaWxsPSIjNTQ2RTdBIiB3aWR0aD0iOCIgaGVpZ2h0PSIyIi8+JiN4YTsgICAgPHJlY3QgeD0iMjAiIHk9IjIzIiBmaWxsPSIjNTQ2RTdBIiB3aWR0aD0iOCIgaGVpZ2h0PSIyIi8+JiN4YTsgICAgPHJlY3QgeD0iMjAiIHk9IjM1IiBmaWxsPSIjNTQ2RTdBIiB3aWR0aD0iOCIgaGVpZ2h0PSIyIi8+JiN4YTs8L3N2Zz4=;labelBackgroundColor=#ffffff;" vertex="1" parent="1">
          <mxGeometry x="278" y="591" width="48" height="48" as="geometry" />
        </mxCell>
        <mxCell id="V6ku-03CU0M4UyF2NpMm-8" value="Eigene Instanz&#xa;Foodle-Node-Server" style="shape=image;verticalLabelPosition=bottom;verticalAlign=top;imageAspect=0;aspect=fixed;image=data:image/svg+xml,PHN2ZyB4bWxucz0iaHR0cDovL3d3dy53My5vcmcvMjAwMC9zdmciIHZlcnNpb249IjEiIHZpZXdCb3g9IjAgMCA0OCA0OCIgZW5hYmxlLWJhY2tncm91bmQ9Im5ldyAwIDAgNDggNDgiPiYjeGE7ICAgIDxwYXRoIGZpbGw9IiNGRjk4MDAiIGQ9Ik00NCwxOHYtNEgzNFY0aC00djEwaC00VjRoLTR2MTBoLTRWNGgtNHYxMEg0djRoMTB2NEg0djRoMTB2NEg0djRoMTB2MTBoNFYzNGg0djEwaDRWMzRoNHYxMGg0VjM0aDEwdi00SDM0IHYtNGgxMHYtNEgzNHYtNEg0NHoiLz4mI3hhOyAgICA8cGF0aCBmaWxsPSIjNENBRjUwIiBkPSJNOCwxMnYyNGMwLDIuMiwxLjgsNCw0LDRoMjRjMi4yLDAsNC0xLjgsNC00VjEyYzAtMi4yLTEuOC00LTQtNEgxMkM5LjgsOCw4LDkuOCw4LDEyeiIvPiYjeGE7ICAgIDxwYXRoIGZpbGw9IiMzNzQ3NEYiIGQ9Ik0zMSwzMUgxN2MtMS4xLDAtMi0wLjktMi0yVjE5YzAtMS4xLDAuOS0yLDItMmgxNGMxLjEsMCwyLDAuOSwyLDJ2MTBDMzMsMzAuMSwzMi4xLDMxLDMxLDMxeiIvPiYjeGE7PC9zdmc+" vertex="1" parent="1">
          <mxGeometry x="428" y="591" width="48" height="48" as="geometry" />
        </mxCell>
        <mxCell id="V6ku-03CU0M4UyF2NpMm-9" style="edgeStyle=orthogonalEdgeStyle;rounded=0;orthogonalLoop=1;jettySize=auto;html=1;startArrow=classic;startFill=1;" edge="1" parent="1" source="V6ku-03CU0M4UyF2NpMm-11" target="V6ku-03CU0M4UyF2NpMm-8">
          <mxGeometry relative="1" as="geometry">
            <mxPoint x="452" y="589" as="targetPoint" />
          </mxGeometry>
        </mxCell>
        <mxCell id="V6ku-03CU0M4UyF2NpMm-10" value="API Abfragen &amp;amp; Antworten" style="edgeLabel;html=1;align=center;verticalAlign=middle;resizable=0;points=[];" vertex="1" connectable="0" parent="V6ku-03CU0M4UyF2NpMm-9">
          <mxGeometry x="-0.2597" y="1" relative="1" as="geometry">
            <mxPoint x="24" y="1" as="offset" />
          </mxGeometry>
        </mxCell>
        <mxCell id="V6ku-03CU0M4UyF2NpMm-11" value="Foodle-Client" style="shape=image;verticalLabelPosition=bottom;verticalAlign=top;imageAspect=0;aspect=fixed;image=data:image/svg+xml,PHN2ZyB4bWxucz0iaHR0cDovL3d3dy53My5vcmcvMjAwMC9zdmciIHZlcnNpb249IjEiIHZpZXdCb3g9IjAgMCA0OCA0OCIgZW5hYmxlLWJhY2tncm91bmQ9Im5ldyAwIDAgNDggNDgiPiYjeGE7ICAgIDxwYXRoIGZpbGw9IiNGRjk4MDAiIGQ9Ik00NCwxOHYtNEgzNFY0aC00djEwaC00VjRoLTR2MTBoLTRWNGgtNHYxMEg0djRoMTB2NEg0djRoMTB2NEg0djRoMTB2MTBoNFYzNGg0djEwaDRWMzRoNHYxMGg0VjM0aDEwdi00SDM0IHYtNGgxMHYtNEgzNHYtNEg0NHoiLz4mI3hhOyAgICA8cGF0aCBmaWxsPSIjNENBRjUwIiBkPSJNOCwxMnYyNGMwLDIuMiwxLjgsNCw0LDRoMjRjMi4yLDAsNC0xLjgsNC00VjEyYzAtMi4yLTEuOC00LTQtNEgxMkM5LjgsOCw4LDkuOCw4LDEyeiIvPiYjeGE7ICAgIDxwYXRoIGZpbGw9IiMzNzQ3NEYiIGQ9Ik0zMSwzMUgxN2MtMS4xLDAtMi0wLjktMi0yVjE5YzAtMS4xLDAuOS0yLDItMmgxNGMxLjEsMCwyLDAuOSwyLDJ2MTBDMzMsMzAuMSwzMi4xLDMxLDMxLDMxeiIvPiYjeGE7PC9zdmc+" vertex="1" parent="1">
          <mxGeometry x="278" y="489" width="48" height="48" as="geometry" />
        </mxCell>
        <mxCell id="V6ku-03CU0M4UyF2NpMm-12" style="edgeStyle=orthogonalEdgeStyle;rounded=0;orthogonalLoop=1;jettySize=auto;html=1;startArrow=none;startFill=0;" edge="1" parent="1" source="V6ku-03CU0M4UyF2NpMm-13" target="V6ku-03CU0M4UyF2NpMm-2">
          <mxGeometry relative="1" as="geometry" />
        </mxCell>
        <mxCell id="V6ku-03CU0M4UyF2NpMm-13" value="Mobile" style="shape=image;verticalLabelPosition=bottom;verticalAlign=top;imageAspect=0;aspect=fixed;image=data:image/svg+xml,PHN2ZyB4bWxucz0iaHR0cDovL3d3dy53My5vcmcvMjAwMC9zdmciIHZlcnNpb249IjEiIHZpZXdCb3g9IjAgMCA0OCA0OCIgZW5hYmxlLWJhY2tncm91bmQ9Im5ldyAwIDAgNDggNDgiPiYjeGE7ICAgIDxwYXRoIGZpbGw9IiMzNzQ3NEYiIGQ9Ik00LDM5VjdjMC0yLjIsMS44LTQsNC00aDIyYzIuMiwwLDQsMS44LDQsNHYzMmMwLDIuMi0xLjgsNC00LDRIOEM1LjgsNDMsNCw0MS4yLDQsMzl6Ii8+JiN4YTsgICAgPHBhdGggZmlsbD0iI0JCREVGQiIgZD0iTTMwLDZIOEM3LjQsNiw3LDYuNCw3LDd2MjljMCwwLjYsMC40LDEsMSwxaDIyYzAuNiwwLDEtMC40LDEtMVY3QzMxLDYuNCwzMC42LDYsMzAsNnoiLz4mI3hhOyAgICA8cmVjdCB4PSIxNSIgeT0iMzkiIGZpbGw9IiM3ODkwOUMiIHdpZHRoPSI2IiBoZWlnaHQ9IjIiLz4mI3hhOyAgICA8cGF0aCBmaWxsPSIjRTM4OTM5IiBkPSJNMjQsNDFWMTdjMC0yLjIsMS44LTQsNC00aDEyYzIuMiwwLDQsMS44LDQsNHYyNGMwLDIuMi0xLjgsNC00LDRIMjhDMjUuOCw0NSwyNCw0My4yLDI0LDQxeiIvPiYjeGE7ICAgIDxwYXRoIGZpbGw9IiNGRkYzRTAiIGQ9Ik00MCwxNkgyOGMtMC42LDAtMSwwLjQtMSwxdjIyYzAsMC42LDAuNCwxLDEsMWgxMmMwLjYsMCwxLTAuNCwxLTFWMTdDNDEsMTYuNCw0MC42LDE2LDQwLDE2eiIvPiYjeGE7ICAgIDxjaXJjbGUgZmlsbD0iI0E2NjQyQSIgY3g9IjM0IiBjeT0iNDIuNSIgcj0iMS41Ii8+JiN4YTs8L3N2Zz4=;labelBackgroundColor=#ffffff;" vertex="1" parent="1">
          <mxGeometry x="303" y="279" width="48" height="48" as="geometry" />
        </mxCell>
        <mxCell id="V6ku-03CU0M4UyF2NpMm-14" style="edgeStyle=orthogonalEdgeStyle;rounded=0;orthogonalLoop=1;jettySize=auto;html=1;startArrow=none;startFill=0;" edge="1" parent="1" source="V6ku-03CU0M4UyF2NpMm-15" target="V6ku-03CU0M4UyF2NpMm-13">
          <mxGeometry relative="1" as="geometry" />
        </mxCell>
        <mxCell id="V6ku-03CU0M4UyF2NpMm-15" value="User" style="shape=image;verticalLabelPosition=bottom;verticalAlign=top;imageAspect=0;aspect=fixed;image=data:image/svg+xml,PHN2ZyB4bWxucz0iaHR0cDovL3d3dy53My5vcmcvMjAwMC9zdmciIHZlcnNpb249IjEiIHZpZXdCb3g9IjAgMCA0OCA0OCIgZW5hYmxlLWJhY2tncm91bmQ9Im5ldyAwIDAgNDggNDgiPiYjeGE7ICAgIDxwb2x5Z29uIGZpbGw9IiNGRjk4MDAiIHBvaW50cz0iMjQsMzcgMTksMzEgMTksMjUgMjksMjUgMjksMzEiLz4mI3hhOyAgICA8ZyBmaWxsPSIjRkZBNzI2Ij4mI3hhOyAgICAgICAgPGNpcmNsZSBjeD0iMzMiIGN5PSIxOSIgcj0iMiIvPiYjeGE7ICAgICAgICA8Y2lyY2xlIGN4PSIxNSIgY3k9IjE5IiByPSIyIi8+JiN4YTsgICAgPC9nPiYjeGE7ICAgIDxwYXRoIGZpbGw9IiNGRkI3NEQiIGQ9Ik0zMywxM2MwLTcuNi0xOC01LTE4LDBjMCwxLjEsMCw1LjksMCw3YzAsNSw0LDksOSw5czktNCw5LTlDMzMsMTguOSwzMywxNC4xLDMzLDEzeiIvPiYjeGE7ICAgIDxwYXRoIGZpbGw9IiM0MjQyNDIiIGQ9Ik0yNCw0Yy02LjEsMC0xMCw0LjktMTAsMTFjMCwwLjgsMCwyLjMsMCwyLjNsMiwxLjd2LTVsMTItNGw0LDR2NWwyLTEuN2MwLDAsMC0xLjUsMC0yLjNjMC00LTEtOC02LTlsLTEtMiBIMjR6Ii8+JiN4YTsgICAgPGcgZmlsbD0iIzc4NDcxOSI+JiN4YTsgICAgICAgIDxjaXJjbGUgY3g9IjI4IiBjeT0iMTkiIHI9IjEiLz4mI3hhOyAgICAgICAgPGNpcmNsZSBjeD0iMjAiIGN5PSIxOSIgcj0iMSIvPiYjeGE7ICAgIDwvZz4mI3hhOyAgICA8cG9seWdvbiBmaWxsPSIjZmZmIiBwb2ludHM9IjI0LDQzIDE5LDMxIDI0LDMyIDI5LDMxIi8+JiN4YTsgICAgPHBvbHlnb24gZmlsbD0iI0QzMkYyRiIgcG9pbnRzPSIyMywzNSAyMi4zLDM5LjUgMjQsNDMuNSAyNS43LDM5LjUgMjUsMzUgMjYsMzQgMjQsMzIgMjIsMzQiLz4mI3hhOyAgICA8cGF0aCBmaWxsPSIjNTQ2RTdBIiBkPSJNMjksMzFMMjksMzFsLTUsMTJsLTUtMTJjMCwwLTExLDItMTEsMTNoMzJDNDAsMzMsMjksMzEsMjksMzF6Ii8+JiN4YTs8L3N2Zz4=;labelBackgroundColor=#ffffff;" vertex="1" parent="1">
          <mxGeometry x="303" y="189" width="48" height="48" as="geometry" />
        </mxCell>
        <mxCell id="V6ku-03CU0M4UyF2NpMm-16" style="edgeStyle=orthogonalEdgeStyle;rounded=0;orthogonalLoop=1;jettySize=auto;html=1;startArrow=none;startFill=0;" edge="1" parent="1" source="V6ku-03CU0M4UyF2NpMm-17" target="V6ku-03CU0M4UyF2NpMm-20">
          <mxGeometry relative="1" as="geometry" />
        </mxCell>
        <mxCell id="V6ku-03CU0M4UyF2NpMm-17" value="User" style="shape=image;verticalLabelPosition=bottom;verticalAlign=top;imageAspect=0;aspect=fixed;image=data:image/svg+xml,PHN2ZyB4bWxucz0iaHR0cDovL3d3dy53My5vcmcvMjAwMC9zdmciIHZlcnNpb249IjEiIHZpZXdCb3g9IjAgMCA0OCA0OCIgZW5hYmxlLWJhY2tncm91bmQ9Im5ldyAwIDAgNDggNDgiPiYjeGE7ICAgIDxwb2x5Z29uIGZpbGw9IiNGRjk4MDAiIHBvaW50cz0iMjQsMzcgMTksMzEgMTksMjUgMjksMjUgMjksMzEiLz4mI3hhOyAgICA8ZyBmaWxsPSIjRkZBNzI2Ij4mI3hhOyAgICAgICAgPGNpcmNsZSBjeD0iMzMiIGN5PSIxOSIgcj0iMiIvPiYjeGE7ICAgICAgICA8Y2lyY2xlIGN4PSIxNSIgY3k9IjE5IiByPSIyIi8+JiN4YTsgICAgPC9nPiYjeGE7ICAgIDxwYXRoIGZpbGw9IiNGRkI3NEQiIGQ9Ik0zMywxM2MwLTcuNi0xOC01LTE4LDBjMCwxLjEsMCw1LjksMCw3YzAsNSw0LDksOSw5czktNCw5LTlDMzMsMTguOSwzMywxNC4xLDMzLDEzeiIvPiYjeGE7ICAgIDxwYXRoIGZpbGw9IiM0MjQyNDIiIGQ9Ik0yNCw0Yy02LjEsMC0xMCw0LjktMTAsMTFjMCwwLjgsMCwyLjMsMCwyLjNsMiwxLjd2LTVsMTItNGw0LDR2NWwyLTEuN2MwLDAsMC0xLjUsMC0yLjNjMC00LTEtOC02LTlsLTEtMiBIMjR6Ii8+JiN4YTsgICAgPGcgZmlsbD0iIzc4NDcxOSI+JiN4YTsgICAgICAgIDxjaXJjbGUgY3g9IjI4IiBjeT0iMTkiIHI9IjEiLz4mI3hhOyAgICAgICAgPGNpcmNsZSBjeD0iMjAiIGN5PSIxOSIgcj0iMSIvPiYjeGE7ICAgIDwvZz4mI3hhOyAgICA8cG9seWdvbiBmaWxsPSIjZmZmIiBwb2ludHM9IjI0LDQzIDE5LDMxIDI0LDMyIDI5LDMxIi8+JiN4YTsgICAgPHBvbHlnb24gZmlsbD0iI0QzMkYyRiIgcG9pbnRzPSIyMywzNSAyMi4zLDM5LjUgMjQsNDMuNSAyNS43LDM5LjUgMjUsMzUgMjYsMzQgMjQsMzIgMjIsMzQiLz4mI3hhOyAgICA8cGF0aCBmaWxsPSIjNTQ2RTdBIiBkPSJNMjksMzFMMjksMzFsLTUsMTJsLTUtMTJjMCwwLTExLDItMTEsMTNoMzJDNDAsMzMsMjksMzEsMjksMzF6Ii8+JiN4YTs8L3N2Zz4=;labelBackgroundColor=#ffffff;" vertex="1" parent="1">
          <mxGeometry x="428" y="189" width="48" height="48" as="geometry" />
        </mxCell>
        <mxCell id="V6ku-03CU0M4UyF2NpMm-18" style="edgeStyle=orthogonalEdgeStyle;rounded=0;orthogonalLoop=1;jettySize=auto;html=1;startArrow=none;startFill=0;" edge="1" parent="1" source="V6ku-03CU0M4UyF2NpMm-20" target="V6ku-03CU0M4UyF2NpMm-2">
          <mxGeometry relative="1" as="geometry">
            <Array as="points">
              <mxPoint x="392" y="303" />
            </Array>
          </mxGeometry>
        </mxCell>
        <mxCell id="V6ku-03CU0M4UyF2NpMm-19" value="Oder" style="edgeLabel;html=1;align=center;verticalAlign=middle;resizable=0;points=[];" vertex="1" connectable="0" parent="V6ku-03CU0M4UyF2NpMm-18">
          <mxGeometry x="-0.1176" y="1" relative="1" as="geometry">
            <mxPoint x="-1" y="-9" as="offset" />
          </mxGeometry>
        </mxCell>
        <mxCell id="V6ku-03CU0M4UyF2NpMm-20" value="PC" style="shape=image;verticalLabelPosition=bottom;verticalAlign=top;imageAspect=0;aspect=fixed;image=data:image/svg+xml,PHN2ZyB4bWxucz0iaHR0cDovL3d3dy53My5vcmcvMjAwMC9zdmciIHZlcnNpb249IjEiIHZpZXdCb3g9IjAgMCA0OCA0OCIgZW5hYmxlLWJhY2tncm91bmQ9Im5ldyAwIDAgNDggNDgiPiYjeGE7ICAgIDxwYXRoIGZpbGw9IiM1NDZFN0EiIGQ9Ik00LDI4VjhjMC0yLjIsMS44LTQsNC00aDI4YzIuMiwwLDQsMS44LDQsNHYyMGMwLDIuMi0xLjgsNC00LDRIOEM1LjgsMzIsNCwzMC4yLDQsMjh6Ii8+JiN4YTsgICAgPHBhdGggZmlsbD0iI0JCREVGQiIgZD0iTTM2LDdIOEM3LjQsNyw3LDcuNCw3LDh2MjBjMCwwLjYsMC40LDEsMSwxaDI4YzAuNiwwLDEtMC40LDEtMVY4QzM3LDcuNCwzNi42LDcsMzYsN3oiLz4mI3hhOyAgICA8cGF0aCBmaWxsPSIjMzc0NzRGIiBkPSJNMzgsMzNINmMtMi4yLDAtNC0xLjgtNC00djBoNDB2MEM0MiwzMS4yLDQwLjIsMzMsMzgsMzN6Ii8+JiN4YTsgICAgPHBhdGggZmlsbD0iI0UzODkzOSIgZD0iTTI0LDQwVjE2YzAtMi4yLDEuOC00LDQtNGgxMmMyLjIsMCw0LDEuOCw0LDR2MjRjMCwyLjItMS44LDQtNCw0SDI4QzI1LjgsNDQsMjQsNDIuMiwyNCw0MHoiLz4mI3hhOyAgICA8cGF0aCBmaWxsPSIjRkZGM0UwIiBkPSJNNDAsMTVIMjhjLTAuNiwwLTEsMC40LTEsMXYyMmMwLDAuNiwwLjQsMSwxLDFoMTJjMC42LDAsMS0wLjQsMS0xVjE2QzQxLDE1LjQsNDAuNiwxNSw0MCwxNXoiLz4mI3hhOyAgICA8Y2lyY2xlIGZpbGw9IiNBNjY0MkEiIGN4PSIzNCIgY3k9IjQxLjUiIHI9IjEuNSIvPiYjeGE7PC9zdmc+" vertex="1" parent="1">
          <mxGeometry x="428" y="279" width="48" height="48" as="geometry" />
        </mxCell>
      </root>
    </mxGraphModel>
  </diagram>
</mxfile>
